<?xml version="1.0" encoding="utf-8"?><svg width="738" height="1460" viewBox="0 0 738 1460" xmlns="http://www.w3.org/2000/svg" xmlns:xlink="http://www.w3.org/1999/xlink"><view id="image-arrow" viewBox="612 194 45 45"/><svg width="45" height="45" viewBox="-1 -1 45 44.73" x="612" y="194" xmlns="http://www.w3.org/2000/svg"><path d="M7.9.73h34.51v34.22h-6.27V11.39L3.83 43.45-.59 39 31.66 7H7.9z" fill="currentColor"/></svg><view id="image-arrow-blue" viewBox="657 194 45 45"/><svg width="45" height="45" viewBox="-1 -1 45 44.73" x="657" y="194" xmlns="http://www.w3.org/2000/svg"><path d="M7.9.73h34.51v34.22h-6.27V11.39L3.83 43.45-.59 39 31.66 7H7.9z" fill="#1B75BC"/></svg><view id="image-arrow-white" viewBox="538 258 45 45"/><svg width="45" height="45" viewBox="-1 -1 45 44.73" x="538" y="258" xmlns="http://www.w3.org/2000/svg"><path d="M7.9.73h34.51v34.22h-6.27V11.39L3.83 43.45-.59 39 31.66 7H7.9z" fill="#FFF"/></svg><view id="image-facebook" viewBox="702 194 26 26"/><svg width="26" height="26" fill="none" viewBox="-1 -1 26 26" x="702" y="194" xmlns="http://www.w3.org/2000/svg"><path d="M16.5 6h-3a1 1 0 00-1 1v3h4a.35.35 0 01.34.46l-.74 2.2a.5.5 0 01-.47.34H12.5v7.5a.5.5 0 01-.5.5H9.5a.5.5 0 01-.5-.5V13H7.5a.5.5 0 01-.5-.5v-2a.5.5 0 01.5-.5H9V7a4 4 0 014-4h3.5a.5.5 0 01.5.5v2a.5.5 0 01-.5.5z" fill="#B9B9B9"/></svg><view id="image-github" viewBox="583 258 26 26"/><svg width="26" height="26" fill="none" viewBox="-1 -1 26 26" x="583" y="258" xmlns="http://www.w3.org/2000/svg"><path d="M22 12.008a10 10 0 01-6.84 9.48.52.52 0 01-.45-.07.51.51 0 01-.21-.41v-2.67a4 4 0 00-.5-2.06.25.25 0 010-.27.27.27 0 01.2-.14c2.44-.25 3.8-1.22 3.8-3.86a4.71 4.71 0 00-1.19-3.36 4.3 4.3 0 00.19-1.2 4.33 4.33 0 00-.15-1.08.49.49 0 00-.53-.36 4.45 4.45 0 00-2.44 1.18 9.91 9.91 0 00-3.76 0 4.45 4.45 0 00-2.44-1.18.49.49 0 00-.53.36A4.33 4.33 0 007 7.448a4.3 4.3 0 00.19 1.2A4.71 4.71 0 006 12.008c0 2.78 1.51 3.71 4.28 3.94a3.71 3.71 0 00-.69 1.53v.12a.68.68 0 000 .14.59.59 0 01-.64.51 1 1 0 01-.43-.12 5.339 5.339 0 01-1.42-1.26 10.092 10.092 0 00-.8-.81 2.743 2.743 0 00-.59-.39.49.49 0 00-.48 0 .5.5 0 00-.23.42v.06a.5.5 0 00.23.42c.358.3.669.655.92 1.05a6.61 6.61 0 001.59 1.72 2.48 2.48 0 001.4.42h.36v1.25a.51.51 0 01-.21.41.52.52 0 01-.45.07A10 10 0 1122 12.008z" fill="#B9B9B9"/></svg><view id="image-glassdoor" viewBox="609 258 26 26"/><svg width="26" height="26" fill="none" viewBox="-1 -1 26 26" x="609" y="258" xmlns="http://www.w3.org/2000/svg"><path fill-rule="evenodd" clip-rule="evenodd" d="M16.285 19.156H4.91A2.834 2.834 0 007.754 22h8.5a2.854 2.854 0 002.844-2.844V7.406c0-.062-.032-.093-.094-.093h-2.625c-.063 0-.094.03-.094.093v11.75zm0-17.156c1.563 0 2.844 1.281 2.844 2.875H7.754v11.75c0 .063-.063.094-.094.094H5.004c-.063 0-.094-.063-.094-.094V4.875C4.91 3.281 6.191 2 7.754 2h8.531z" fill="#B9B9B9"/></svg><view id="image-linkedin" viewBox="635 258 26 26"/><svg width="26" height="26" fill="none" viewBox="-1 -1 26 26" x="635" y="258" xmlns="http://www.w3.org/2000/svg"><path fill-rule="evenodd" clip-rule="evenodd" d="M5 3h14a2 2 0 012 2v14a2 2 0 01-2 2H5a2 2 0 01-2-2V5a2 2 0 012-2zm3 15a.5.5 0 00.5-.5v-7A.5.5 0 008 10H6.5a.5.5 0 00-.5.5v7a.5.5 0 00.5.5H8zm-.75-9a1.5 1.5 0 110-3 1.5 1.5 0 010 3zm10.25 9a.5.5 0 00.5-.5v-4.6a3.1 3.1 0 00-2.72-3.14 3 3 0 00-2.78 1.34v-.6a.5.5 0 00-.5-.5h-1.5a.5.5 0 00-.5.5v7a.5.5 0 00.5.5H12a.5.5 0 00.5-.5v-3.75a1.5 1.5 0 013 0v3.75a.5.5 0 00.5.5h1.5z" fill="#B9B9B9"/></svg><view id="image-quotation-marks" viewBox="538 194 74 64"/><svg width="74" height="64" fill="none" viewBox="-1 -1 74 64" x="538" y="194" xmlns="http://www.w3.org/2000/svg"><path opacity=".1" d="M37.544 43.347c0-9.37 3.869-18.39 11.606-27.059 2.499-2.977 8.1-7.662 16.805-14.055L69.703 0 72 4.335c-5.723 4.466-9.793 8.012-12.21 10.64-4.273 4.64-6.408 8.932-6.408 12.873 0 1.138.12 2.233.362 3.283.323.964.927 1.927 1.814 2.89l2.297 2.496c2.66 2.89 4.433 5.123 5.32 6.7.966 1.575 1.45 3.633 1.45 6.173 0 4.028-1.25 7.137-3.748 9.326C58.38 60.906 55.357 62 51.81 62c-4.191 0-7.617-1.839-10.277-5.517-2.66-3.678-3.99-8.056-3.99-13.136zM0 43.347c0-8.056 2.096-15.018 6.287-20.885 4.19-5.867 11.566-12.61 22.124-20.229L32.038 0l2.297 4.335c-5.4 4.203-9.39 7.706-11.969 10.508-4.433 4.817-6.65 9.108-6.65 12.873 0 1.226.202 2.408.605 3.547a8.545 8.545 0 001.693 2.758l2.297 2.496c2.418 2.54 4.151 4.729 5.199 6.568 1.048 1.751 1.571 3.94 1.571 6.568 0 3.152-1.088 5.998-3.264 8.538-2.176 2.54-5.36 3.809-9.55 3.809-4.03 0-7.416-1.751-10.156-5.254C1.37 53.243 0 48.776 0 43.347z" fill="#1B75BC"/></svg><view id="image-star-rating" viewBox="661 258 26 24"/><svg width="26" height="24" fill="none" viewBox="-1 -1 26 24" x="661" y="258" xmlns="http://www.w3.org/2000/svg"><path d="M12 0l2.694 8.292h8.719l-7.054 5.124 2.694 8.292L12 16.584l-7.053 5.124 2.694-8.292L.587 8.292h8.719L12 0z" fill="#fff"/></svg><view id="image-symbol-main" viewBox="0 0 538 1460"/><svg width="538" height="1460" fill="currentColor" viewBox="-1 -1 538 1460" xmlns="http://www.w3.org/2000/svg"><path d="M536 0v236.452l-8.921.184c-89.03 2.203-138.188 56.543-138.188 153.106l-.364 502.094-.182 193.674v.74C365.223 1271.11 227.582 1458 9.103 1458H0v-248.75l8.193-.92c86.663-8.63 138.37-67.93 138.37-158.43l-.183-680.352C146.563 165.774 317.34 0 526.897 0H536z"/></svg><view id="image-twitter" viewBox="538 303 26 26"/><svg width="26" height="26" fill="none" viewBox="-1 -1 26 26" x="538" y="303" xmlns="http://www.w3.org/2000/svg"><path d="M21.97 6.464a7.99 7.99 0 01-1.847 1.778v.55a12.19 12.19 0 01-3.621 8.69A12.178 12.178 0 017.772 21a12.217 12.217 0 01-5.443-1.259.25.25 0 01-.15-.23v-.11a.26.26 0 01.26-.26 8.844 8.844 0 005.112-1.837 4.363 4.363 0 01-3.884-2.558.26.26 0 01.26-.36c.51.052 1.025.004 1.518-.14A4.355 4.355 0 012 10.44a.26.26 0 01.36-.26c.497.22 1.033.335 1.577.34a4.277 4.277 0 01-1.708-4.935.54.54 0 01.91-.18 12.339 12.339 0 008.397 3.876 3.995 3.995 0 01-.12-1 4.352 4.352 0 017.499-2.937 8.675 8.675 0 002.386-.828.17.17 0 01.18 0 .17.17 0 010 .18 4.365 4.365 0 01-1.758 1.998 8.564 8.564 0 001.997-.48.16.16 0 01.18 0 .17.17 0 01.07.25z" fill="#B9B9B9"/></svg><view id="image-visionist-logo-default" viewBox="538 66 176 64"/><svg width="176" height="64" fill="none" viewBox="-1 -1 176 64" x="538" y="66" xmlns="http://www.w3.org/2000/svg"><path d="M107.003 17.698v23.295c0 2.28-1.075 2.756-1.973 2.756a2.991 2.991 0 01-1.568-.415c-.459-.276-.939-.677-1.446-1.195L90.412 26.75v16.758h-4.844V20.241c0-.753.213-1.375.63-1.838.419-.463 1.021-.704 1.795-.704.487 0 .953.103 1.377.31.439.215.857.595 1.247 1.12l11.549 15.322V17.698h4.837z" fill="#000"/><path d="M150.729 43.52h-2.617V31.605h2.617v11.917zM161.95 31.605V42.2c0 1.237-.664 1.423-1.062 1.423-.301 0-.576-.069-.808-.207a4.382 4.382 0 01-.678-.56l-.027-.04-4.831-6.404v7.108h-2.541V32.938c0-.394.11-.719.329-.954.151-.165.439-.38.939-.38.24 0 .479.056.705.166.213.097.432.29.624.553l4.816 6.39v-7.108h2.534zM165.8 36.26a3.486 3.486 0 00-.253 1.34c0 .491.074.926.239 1.327.171.408.391.74.685 1.023.295.29.651.51 1.049.676.404.166.863.25 1.37.25h1.966v2.645h-1.966a6.124 6.124 0 01-2.405-.47 5.703 5.703 0 01-1.884-1.285 5.953 5.953 0 01-1.24-1.927 6.677 6.677 0 01-.438-2.39c0-.857.151-1.651.438-2.356a5.314 5.314 0 011.233-1.851 5.501 5.501 0 011.884-1.202c.727-.29 1.534-.435 2.412-.435h1.966v2.645h-1.966c-.487 0-.925.083-1.343.256-.411.166-.761.4-1.055.69-.294.298-.52.643-.692 1.065z" fill="#6D6F71"/><path d="M56.57 50.166c0 2.239-1.808 4.063-4.027 4.063-2.22 0-4.029-1.824-4.029-4.063 0-2.238 1.809-4.061 4.029-4.061 2.22 0 4.028 1.823 4.028 4.062zM24.195 17.698v23.467c0 .733-.198 1.34-.582 1.796-.397.477-.938.719-1.596.719-.527 0-1.034-.11-1.514-.325-.48-.235-.904-.608-1.26-1.112L3.055 17.698H9.05l10.132 16.13v-16.13h5.014z" fill="#000"/><path d="M32.765 43.507h-5.014V17.699h5.014v25.808zM114.792 43.507h-5.014V17.699h5.014v25.808zM150.613 17.699v5.056h-6.337v20.752h-5.014V22.755h-14.386c-.843 0-1.48.221-1.945.67-.467.45-.692.96-.692 1.562 0 .684.239 1.236.719 1.692.493.463 1.117.69 1.918.69h2.459c1.137 0 2.213.194 3.193.588a7.557 7.557 0 012.541 1.658 7.742 7.742 0 011.664 2.563c.397.988.596 2.072.596 3.226 0 1.16-.218 2.252-.651 3.247a7.569 7.569 0 01-1.814 2.576c-.768.719-1.706 1.279-2.802 1.68-1.076.393-2.289.6-3.59.6h-9.077V38.45h9.077c1.254 0 2.294-.31 3.096-.911.788-.595 1.164-1.327 1.164-2.239 0-.918-.376-1.65-1.164-2.238-.794-.608-1.835-.912-3.096-.912h-1.98a8.159 8.159 0 01-2.959-.532 7.111 7.111 0 01-2.385-1.485 6.832 6.832 0 01-1.581-2.28c-.391-.863-.583-1.837-.583-2.894 0-1.036.192-2.003.583-2.867a6.765 6.765 0 011.651-2.314c.712-.656 1.581-1.174 2.582-1.534.98-.366 2.089-.545 3.281-.545h25.532zM34.307 11.28c0 2.24-1.802 4.063-4.021 4.063-2.22 0-4.028-1.824-4.028-4.062 0-2.238 1.808-4.062 4.028-4.062 2.22 0 4.02 1.824 4.02 4.062z" fill="#231F20"/><path d="M76.738 35.342c-.02.041-.055.083-.082.124-.11.145-.213.29-.343.422-.007.007-.013.02-.02.027l-.11.132c-1.425 1.595-3.405 2.404-5.925 2.404-.59 0-1.151-.049-1.692-.139h-.007c-1.596-.27-2.946-.96-4.015-2.044l-.102-.104c-.035-.041-.076-.083-.11-.124-1.288-1.437-1.945-3.24-1.945-5.354 0-2.287.746-4.2 2.212-5.7 1.473-1.478 3.377-2.23 5.7-2.23 2.288 0 4.185.745 5.658 2.217 1.466 1.471 2.206 3.392 2.206 5.713 0 1.789-.48 3.357-1.425 4.656zm3.268-13.726c-2.336-2.598-5.597-3.917-9.748-3.917-4.11 0-7.385 1.333-9.742 3.951-2.089 2.314-3.144 5.23-3.144 8.684 0 3.226.938 6.072 2.802 8.455.15.193.301.394.473.58 2.41 2.75 5.644 4.138 9.652 4.138 3.96 0 7.193-1.388 9.61-4.138.247-.29.494-.6.734-.925l.103-.146c.075-.117.15-.22.219-.331 1.466-2.19 2.212-4.76 2.212-7.633 0-3.454-1.068-6.39-3.171-8.718" fill="#000"/><path d="M68.559 38.312c-1.596-.27-2.946-.96-4.015-2.045l-.102-.103h.006l.137.103c1.076 1.078 2.405 1.769 3.974 2.045z" fill="#231F20"/><path d="M54.981 43.507h-5.014V17.699h5.014v25.808z" fill="#000"/><path d="M51.597 3.544v8.897l-.336.007c-3.35.083-5.2 2.128-5.2 5.762l-.013 18.893-.007 7.288v.028c-.87 6.956-6.049 13.989-14.269 13.989h-.343v-9.36l.309-.035c3.26-.325 5.206-2.556 5.206-5.962l-.007-25.601c.007-7.668 6.433-13.906 14.318-13.906h.342z" fill="#1B75BC"/></svg><view id="image-visionist-logo-primary" viewBox="538 130 176 64"/><svg width="176" height="64" fill="none" viewBox="-1 -1 176 64" x="538" y="130" xmlns="http://www.w3.org/2000/svg"><path d="M107.003 17.698v23.295c0 2.28-1.075 2.756-1.973 2.756a2.991 2.991 0 01-1.568-.415c-.459-.276-.939-.677-1.446-1.195L90.412 26.75v16.758h-4.844V20.241c0-.753.213-1.375.63-1.838.419-.463 1.021-.704 1.796-.704.486 0 .952.103 1.376.31.439.215.857.595 1.247 1.12l11.549 15.322V17.698h4.837z" fill="#fff"/><path d="M150.729 43.52h-2.617V31.605h2.617v11.917zM161.95 31.605V42.2c0 1.237-.664 1.423-1.062 1.423-.301 0-.576-.069-.808-.207a4.382 4.382 0 01-.678-.56l-.027-.04-4.831-6.404v7.108h-2.541V32.938c0-.394.11-.719.329-.954.151-.165.439-.38.939-.38.24 0 .479.056.705.166.213.097.432.29.624.553l4.816 6.39v-7.108h2.534zM165.8 36.26a3.486 3.486 0 00-.253 1.34c0 .491.074.926.239 1.327.171.408.391.74.685 1.023.295.29.651.51 1.049.676.404.166.863.25 1.37.25h1.966v2.645h-1.966a6.124 6.124 0 01-2.405-.47 5.703 5.703 0 01-1.884-1.285 5.953 5.953 0 01-1.24-1.927 6.677 6.677 0 01-.438-2.39c0-.857.151-1.651.438-2.356a5.314 5.314 0 011.233-1.851 5.501 5.501 0 011.884-1.202c.727-.29 1.534-.435 2.412-.435h1.966v2.645h-1.966c-.487 0-.925.083-1.343.256-.411.166-.761.4-1.055.69-.294.298-.52.643-.692 1.065z" fill="#E3E3E3"/><path d="M56.57 50.166c0 2.239-1.808 4.063-4.027 4.063-2.22 0-4.028-1.824-4.028-4.063 0-2.238 1.808-4.061 4.028-4.061 2.22 0 4.028 1.823 4.028 4.062zM24.195 17.698v23.467c0 .733-.198 1.34-.582 1.796-.397.477-.938.719-1.596.719-.527 0-1.034-.11-1.514-.325-.48-.235-.904-.608-1.26-1.112L3.055 17.698H9.05l10.132 16.13v-16.13h5.014zM32.765 43.507h-5.014V17.7h5.014v25.808zM114.792 43.507h-5.014V17.7h5.014v25.808zM150.613 17.699v5.056h-6.337v20.752h-5.014V22.755h-14.386c-.843 0-1.48.221-1.945.67-.467.45-.692.96-.692 1.562 0 .684.239 1.236.719 1.692.493.463 1.117.69 1.918.69h2.459c1.138 0 2.213.194 3.193.588a7.557 7.557 0 012.541 1.658 7.742 7.742 0 011.664 2.563c.397.988.596 2.072.596 3.226 0 1.16-.218 2.252-.651 3.247a7.569 7.569 0 01-1.814 2.576c-.768.719-1.706 1.279-2.802 1.68-1.076.393-2.289.6-3.59.6h-9.077V38.45h9.077c1.254 0 2.294-.31 3.096-.911.788-.595 1.165-1.327 1.165-2.239 0-.918-.377-1.65-1.165-2.238-.794-.608-1.835-.912-3.096-.912h-1.98a8.163 8.163 0 01-2.959-.532 7.111 7.111 0 01-2.385-1.485 6.847 6.847 0 01-1.581-2.28c-.391-.863-.583-1.837-.583-2.894 0-1.036.192-2.003.583-2.867a6.778 6.778 0 011.651-2.314c.712-.656 1.581-1.174 2.582-1.534.98-.366 2.089-.545 3.281-.545h25.532zM34.307 11.28c0 2.24-1.802 4.063-4.021 4.063-2.22 0-4.028-1.824-4.028-4.062 0-2.238 1.808-4.062 4.028-4.062 2.22 0 4.02 1.824 4.02 4.062zM76.738 35.342c-.02.041-.055.083-.082.124-.11.145-.212.29-.343.422-.006.007-.013.02-.02.027l-.11.132c-1.425 1.595-3.404 2.404-5.925 2.404a10.3 10.3 0 01-1.692-.139h-.007c-1.596-.27-2.946-.96-4.015-2.044l-.102-.104c-.035-.041-.076-.083-.11-.124-1.288-1.437-1.945-3.24-1.945-5.354 0-2.287.746-4.2 2.212-5.7 1.473-1.478 3.377-2.23 5.7-2.23 2.288 0 4.185.745 5.658 2.217 1.466 1.471 2.206 3.392 2.206 5.713 0 1.789-.48 3.357-1.425 4.656zm3.268-13.726c-2.336-2.598-5.597-3.917-9.748-3.917-4.11 0-7.385 1.333-9.742 3.951-2.089 2.314-3.144 5.23-3.144 8.684 0 3.226.939 6.072 2.802 8.455.15.193.301.394.473.58 2.41 2.75 5.644 4.138 9.652 4.138 3.96 0 7.193-1.388 9.61-4.138.247-.29.494-.6.734-.925l.103-.146c.075-.117.15-.22.219-.331 1.466-2.19 2.212-4.76 2.212-7.633 0-3.454-1.068-6.39-3.171-8.718" fill="#fff"/><path d="M68.559 38.312c-1.596-.27-2.946-.96-4.015-2.045l-.102-.103h.007l.136.103c1.076 1.078 2.405 1.769 3.974 2.045zM54.981 43.507h-5.014V17.7h5.014v25.808z" fill="#fff"/><path d="M51.597 3.544v8.897l-.336.007c-3.35.083-5.2 2.128-5.2 5.762l-.013 18.893-.007 7.288v.028c-.87 6.956-6.048 13.989-14.269 13.989h-.342v-9.36l.308-.035c3.26-.325 5.206-2.556 5.206-5.962l-.007-25.601c.007-7.668 6.433-13.906 14.318-13.906h.342z" fill="#1B75BC"/></svg><view id="image-visionist-logo-white" viewBox="538 0 200 66"/><svg width="200" height="66" fill="none" viewBox="-1 -1 200 66" x="538" xmlns="http://www.w3.org/2000/svg"><path d="M122.278 16.512v27.173c0 2.659-1.265 3.223-2.32 3.223a3.55 3.55 0 01-1.846-.483 8.885 8.885 0 01-1.7-1.394l-13.651-17.963v19.55h-5.697v-27.14c-.035-.784.23-1.55.74-2.144a2.724 2.724 0 012.112-.806 3.692 3.692 0 011.612.363c.585.313 1.088.76 1.467 1.305l13.586 17.873V16.512h5.697zM173.715 32.733h-3.078v13.901h3.078v-13.9zM186.955 32.733v12.394c0 1.443-.806 1.66-1.249 1.66a1.855 1.855 0 01-.951-.241 5.11 5.11 0 01-.806-.653v-.049l-5.681-7.47v8.26h-2.989V34.29a1.613 1.613 0 01.386-1.112 1.443 1.443 0 011.104-.444c.28.005.555.07.806.194.294.15.546.372.734.645l5.64 7.454v-8.293h3.006zM191.444 38.164a4.009 4.009 0 00-.298 1.564c-.01.53.086 1.055.282 1.547.182.45.456.856.805 1.193a3.86 3.86 0 001.233.805c.514.2 1.061.3 1.612.29h2.353v3.087h-2.313a7.251 7.251 0 01-2.828-.548 6.694 6.694 0 01-2.216-1.499 6.935 6.935 0 01-1.507-2.264 7.705 7.705 0 01-.516-2.789 7.202 7.202 0 01.516-2.747 6.187 6.187 0 011.45-2.16 6.458 6.458 0 012.216-1.402 7.657 7.657 0 012.837-.508h2.361v3.086h-2.313c-.551-.01-1.1.091-1.611.298a3.754 3.754 0 00-1.241.806 3.684 3.684 0 00-.822 1.241zM60.026 58.762a4.738 4.738 0 10-3.627-8.756 4.738 4.738 0 003.627 8.756zM24.868 16.512V43.91a3.15 3.15 0 01-.685 2.096 2.344 2.344 0 01-1.877.805 4.36 4.36 0 01-1.781-.378 3.956 3.956 0 01-1.483-1.306L0 16.512h7.051L18.97 35.328V16.512h5.9zM34.95 16.512h-5.9v30.106h5.9V16.512zM131.441 16.512h-5.899v30.106h5.899V16.512zM173.579 16.512v5.898h-7.454v24.176h-5.899V22.41h-16.923a3.151 3.151 0 00-2.288.805 2.407 2.407 0 00-.798 1.765 2.579 2.579 0 00.806 2.007 3.142 3.142 0 002.256.806h2.893c1.284-.013 2.558.22 3.755.684a8.872 8.872 0 012.99 1.934 9.04 9.04 0 011.958 2.99 9.953 9.953 0 01.701 3.764 9.378 9.378 0 01-.806 3.787 8.867 8.867 0 01-2.135 3.006 9.58 9.58 0 01-3.232 1.974 12.377 12.377 0 01-4.222.701h-10.678V40.72h10.678a5.971 5.971 0 003.642-1.063 3.183 3.183 0 001.369-2.611 3.18 3.18 0 00-1.369-2.611 5.881 5.881 0 00-3.642-1.064h-2.329a9.667 9.667 0 01-3.481-.62 8.36 8.36 0 01-2.805-1.733 7.964 7.964 0 01-1.861-2.66 8.585 8.585 0 010-6.72 7.92 7.92 0 011.942-2.7 8.87 8.87 0 013.038-1.789 11.112 11.112 0 013.86-.636h30.034zM36.762 9.025a4.738 4.738 0 11-9.476 0 4.738 4.738 0 019.476 0zM90.52 21.08c-2.747-3.03-6.583-4.568-11.467-4.568-4.883 0-8.687 1.555-11.459 4.61a14.506 14.506 0 00-3.698 10.129 15.53 15.53 0 003.295 9.847c.178.226.355.46.556.677 2.837 3.223 6.64 4.835 11.355 4.835a14.433 14.433 0 0011.282-4.835c.29-.339.58-.701.862-1.08l.12-.17.259-.386a15.609 15.609 0 002.602-8.864 14.61 14.61 0 00-3.706-10.194zM86.678 37.07a4.674 4.674 0 01-.5.637l-.129.153a8.913 8.913 0 01-6.97 2.804c-.667 0-1.333-.053-1.99-.161a8.477 8.477 0 01-4.723-2.418l-.12-.12-.162-.09a9.018 9.018 0 01-2.289-6.245 9.284 9.284 0 1118.535 0 8.97 8.97 0 01-1.652 5.44zM61.082 16.512h-5.898v30.106h5.898V16.512z" fill="#fff"/><path d="M57.102 0v10.38h-.395c-3.94.096-6.116 2.481-6.116 6.72v30.582C49.568 55.796 43.475 64 33.805 64h-.403V53.08l.363-.04c3.836-.378 6.124-2.981 6.124-6.954V16.222C39.865 7.252 47.424 0 56.7 0h.403z" fill="#fff"/></svg><view id="image-zero" viewBox="714 66 18 22"/><svg width="18" height="22" fill="none" viewBox="-1 -1 18 22" x="714" y="66" xmlns="http://www.w3.org/2000/svg"><path fill-rule="evenodd" clip-rule="evenodd" d="M12.285 17.156H.91A2.834 2.834 0 003.754 20h8.5a2.854 2.854 0 002.844-2.844V5.406c0-.062-.032-.093-.094-.093h-2.625c-.063 0-.094.03-.094.093v11.75zm0-17.156c1.563 0 2.844 1.281 2.844 2.875H3.754v11.75c0 .063-.063.094-.094.094H1.004c-.063 0-.094-.063-.094-.094V2.875C.91 1.281 2.191 0 3.754 0h8.531z" fill="#fff"/></svg></svg>